<svg width="228" height="97" viewBox="0 0 228 97" fill="none" xmlns="http://www.w3.org/2000/svg">
<path d="M0 74.8L98.5 0L5.5 37.1L0 74.8Z" fill="#F7F7F7"/>
<path opacity="0.4" d="M98.4998 0L93.3998 31.2L84.2998 5.6L98.4998 0Z" fill="white"/>
<path d="M148 54.5C147.4 54.1 146.7 53.9 145.9 53.6C145.1 53.4 144.4 53.2 143.6 53C142.8 52.8 142.1 52.6 141.5 52.4C140.9 52.2 140.4 52 140 51.6C139.6 51.3 139.4 50.8 139.4 50.3C139.4 49.8 139.5 49.4 139.8 49.1C140.1 48.7 140.5 48.5 141.1 48.2C141.7 48 142.4 47.9 143.3 47.9C144.1 47.9 144.9 48 145.8 48.2C146.7 48.4 147.5 48.8 148.3 49.3L149.4 46.7C148.6 46.2 147.7 45.8 146.6 45.5C145.5 45.2 144.5 45.1 143.4 45.1C141.8 45.1 140.4 45.3 139.3 45.8C138.2 46.3 137.4 46.9 136.9 47.7C136.4 48.5 136.1 49.4 136.1 50.4C136.1 51.4 136.3 52.1 136.7 52.8C137.1 53.4 137.6 53.9 138.2 54.3C138.8 54.7 139.5 55 140.3 55.2C141.1 55.4 141.8 55.6 142.6 55.8C143.4 56 144.1 56.2 144.7 56.4C145.3 56.6 145.8 56.9 146.2 57.2C146.6 57.5 146.8 58 146.8 58.5C146.8 58.9 146.7 59.3 146.4 59.7C146.1 60.1 145.7 60.3 145.1 60.5C144.5 60.7 143.8 60.8 142.8 60.8C141.7 60.8 140.6 60.6 139.5 60.2C138.4 59.8 137.6 59.4 136.8 58.8L135.6 61.4C136.4 62 137.4 62.5 138.7 63C140 63.4 141.3 63.6 142.7 63.6C144.3 63.6 145.7 63.4 146.8 62.9C147.9 62.4 148.7 61.8 149.2 61C149.7 60.2 150 59.3 150 58.3C150 57.4 149.8 56.6 149.4 56C149.2 55.3 148.7 54.8 148 54.5Z" fill="white"/>
<path d="M166.699 55.4C166.699 57.2 166.299 58.6 165.499 59.4C164.699 60.2 163.599 60.7 162.099 60.7C160.599 60.7 159.499 60.3 158.699 59.4C157.899 58.5 157.499 57.2 157.499 55.4V45.4H154.199V55.5C154.199 58.1 154.899 60.1 156.299 61.5C157.699 62.9 159.599 63.6 162.099 63.6C164.499 63.6 166.499 62.9 167.899 61.5C169.299 60.1 169.999 58.1 169.999 55.5V45.4H166.699V55.4Z" fill="white"/>
<path d="M173.1 48.2H179V63.3H182.3V48.2H188.3V45.4H173.1V48.2Z" fill="white"/>
<path d="M195.4 49.8C196 49.2 196.6 48.8 197.4 48.5C198.2 48.2 199 48 200 48C200.9 48 201.8 48.2 202.6 48.5C203.4 48.9 204.1 49.4 204.8 50.1L207 48.1C206.2 47.1 205.1 46.4 203.9 45.9C202.7 45.4 201.3 45.1 199.9 45.1C198.5 45.1 197.2 45.3 196.1 45.8C194.9 46.3 193.9 46.9 193 47.7C192.1 48.5 191.5 49.5 191 50.6C190.5 51.7 190.3 53 190.3 54.3C190.3 55.6 190.5 56.9 191 58C191.5 59.1 192.1 60.1 193 60.9C193.9 61.7 194.9 62.4 196 62.8C197.2 63.3 198.4 63.5 199.8 63.5C201.3 63.5 202.6 63.2 203.8 62.7C205 62.2 206 61.4 206.9 60.5L204.7 58.4C204.1 59.1 203.3 59.7 202.5 60C201.7 60.4 200.8 60.5 199.9 60.5C199 60.5 198.1 60.3 197.3 60C196.5 59.7 195.8 59.3 195.3 58.7C194.7 58.1 194.3 57.5 194 56.7C193.7 55.9 193.5 55.1 193.5 54.2C193.5 53.3 193.7 52.4 194 51.7C194.4 51 194.9 50.4 195.4 49.8Z" fill="white"/>
<path d="M223.799 45.4V52.8H214.499V45.4H211.199V63.3H214.499V55.6H223.799V63.3H227.199V45.4H223.799Z" fill="white"/>
<path d="M51.8998 73.1C52.4998 72.5 53.0998 72.1 53.8998 71.8C54.6998 71.5 55.4998 71.3 56.4998 71.3C57.3998 71.3 58.2998 71.5 59.0998 71.8C59.8998 72.2 60.5998 72.7 61.2998 73.4L63.4998 71.4C62.6998 70.4 61.5998 69.7 60.3998 69.2C59.1998 68.7 57.7998 68.4 56.3998 68.4C54.9998 68.4 53.6998 68.6 52.5998 69.1C51.3998 69.6 50.3998 70.2 49.4998 71C48.5998 71.8 47.9998 72.8 47.4998 73.9C46.9998 75 46.7998 76.3 46.7998 77.6C46.7998 78.9 46.9998 80.2 47.4998 81.3C47.9998 82.4 48.5998 83.4 49.4998 84.2C50.3998 85 51.3998 85.7 52.4998 86.1C53.6998 86.6 54.8998 86.8 56.2998 86.8C57.7998 86.8 59.0998 86.5 60.2998 86C61.4998 85.5 62.4998 84.7 63.3998 83.8L61.1998 81.7C60.5998 82.4 59.7998 83 58.9998 83.3C58.1998 83.7 57.2998 83.8 56.3998 83.8C55.4998 83.8 54.5998 83.6 53.7998 83.3C52.9998 83 52.2998 82.6 51.7998 82C51.1998 81.4 50.7998 80.8 50.4998 80C50.1998 79.2 49.9998 78.4 49.9998 77.5C49.9998 76.6 50.1998 75.7 50.4998 75C50.8998 74.3 51.2998 73.6 51.8998 73.1Z" fill="white"/>
<path d="M79.0996 80.6C80.1996 80.1 81.0996 79.4 81.6996 78.4C82.2996 77.5 82.5996 76.3 82.5996 75C82.5996 73.7 82.2996 72.5 81.6996 71.6C81.0996 70.6 80.1996 69.9 79.0996 69.4C77.9996 68.9 76.5996 68.6 74.9996 68.6H67.5996V86.5H70.8996V81.3H74.8996C75.0996 81.3 75.3996 81.3 75.5996 81.3L79.2996 86.6H82.8996L78.7996 80.7C78.8996 80.7 78.9996 80.6 79.0996 80.6ZM78.1996 72.4C78.8996 73 79.2996 73.9 79.2996 75C79.2996 76.1 78.8996 77 78.1996 77.6C77.4996 78.2 76.3996 78.5 74.8996 78.5H70.9996V71.4H74.8996C76.2996 71.5 77.3996 71.8 78.1996 72.4Z" fill="white"/>
<path d="M92.8998 68.6L84.7998 86.5H88.1998L89.9998 82.3H98.9998L100.8 86.5H104.3L96.1998 68.6H92.8998ZM91.1998 79.8L94.5998 71.9L97.9998 79.8H91.1998Z" fill="white"/>
<path d="M120.3 80.8L110.4 68.6H107.6V86.6H110.9V74.4L120.8 86.6H123.6V68.6H120.3V80.8Z" fill="white"/>
<path d="M132.699 78.8H141.399V76.1H132.699V71.4H142.499V68.6H129.399V86.6H142.899V83.8H132.699V78.8Z" fill="white"/>
<path d="M159.799 79.2C159.399 78.6 158.899 78.1 158.299 77.7C157.699 77.3 156.999 77.1 156.199 76.8C155.399 76.6 154.699 76.4 153.899 76.2C153.099 76 152.399 75.8 151.799 75.6C151.199 75.4 150.699 75.2 150.299 74.8C149.899 74.5 149.699 74 149.699 73.5C149.699 73 149.799 72.6 150.099 72.3C150.399 71.9 150.799 71.7 151.399 71.4C151.999 71.1 152.699 71.1 153.599 71.1C154.399 71.1 155.199 71.2 156.099 71.4C156.999 71.6 157.799 72 158.599 72.5L159.699 69.9C158.899 69.4 157.999 69 156.899 68.7C155.799 68.4 154.799 68.3 153.699 68.3C152.099 68.3 150.699 68.5 149.599 69C148.499 69.5 147.699 70.1 147.199 70.9C146.699 71.7 146.399 72.6 146.399 73.6C146.399 74.6 146.599 75.3 146.999 76C147.399 76.6 147.899 77.1 148.499 77.5C149.099 77.9 149.799 78.2 150.599 78.4C151.399 78.6 152.099 78.8 152.899 79C153.699 79.2 154.399 79.4 154.999 79.6C155.599 79.8 156.099 80.1 156.499 80.4C156.899 80.7 157.099 81.2 157.099 81.7C157.099 82.1 156.999 82.5 156.699 82.9C156.399 83.3 155.999 83.5 155.399 83.7C154.799 83.9 154.099 84 153.099 84C151.999 84 150.899 83.8 149.799 83.4C148.699 83 147.899 82.6 147.099 82L145.899 84.6C146.699 85.2 147.699 85.7 148.999 86.2C150.299 86.6 151.599 86.8 152.999 86.8C154.599 86.8 155.999 86.6 157.099 86.1C158.199 85.6 158.999 85 159.499 84.2C159.999 83.4 160.299 82.5 160.299 81.5C160.399 80.6 160.199 79.8 159.799 79.2Z" fill="white"/>
<path d="M79.3002 47.8C78.4002 47 77.4002 46.3 76.2002 45.9C75.0002 45.4 73.7002 45.2 72.3002 45.2C70.9002 45.2 69.6002 45.4 68.5002 45.9C67.3002 46.4 66.3002 47 65.4002 47.8C64.5002 48.6 63.9002 49.6 63.4002 50.7C62.9002 51.8 62.7002 53 62.7002 54.4C62.7002 55.7 62.9002 57 63.4002 58.1C63.9002 59.2 64.6002 60.2 65.4002 61C66.3002 61.8 67.3002 62.5 68.5002 62.9C69.7002 63.4 71.0002 63.6 72.4002 63.6C73.8002 63.6 75.1002 63.4 76.2002 62.9C77.4002 62.4 78.4002 61.8 79.3002 61C80.2002 60.2 80.8002 59.2 81.3002 58.1C81.8002 57 82.0002 55.7 82.0002 54.4C82.0002 53.1 81.8002 51.8 81.3002 50.7C80.8002 49.6 80.1002 48.6 79.3002 47.8ZM78.2002 56.9C77.9002 57.7 77.4002 58.3 76.9002 58.9C76.3002 59.5 75.7002 59.9 74.9002 60.2C74.1002 60.5 73.3002 60.7 72.4002 60.7C71.5002 60.7 70.7002 60.5 69.9002 60.2C69.1002 59.9 68.5002 59.5 67.9002 58.9C67.3002 58.3 66.9002 57.7 66.6002 56.9C66.2002 56.1 66.1002 55.3 66.1002 54.4C66.1002 53.5 66.3002 52.6 66.6002 51.9C66.9002 51.1 67.4002 50.5 67.9002 49.9C68.5002 49.3 69.1002 48.9 69.9002 48.6C70.7002 48.3 71.5002 48.1 72.4002 48.1C73.3002 48.1 74.1002 48.3 74.9002 48.6C75.7002 48.9 76.3002 49.3 76.9002 49.9C77.5002 50.5 77.9002 51.1 78.2002 51.9C78.5002 52.7 78.7002 53.5 78.7002 54.4C78.7002 55.3 78.5002 56.1 78.2002 56.9Z" fill="white"/>
<path d="M99.1996 52.8H89.8996V45.4H86.5996V63.3H89.8996V55.6H99.1996V63.3H102.5V45.4H99.1996V52.8Z" fill="white"/>
<path d="M120.999 45.4V57.5L111.099 45.4H108.399V63.3H111.699V51.2L121.599 63.3H124.299V45.4H120.999Z" fill="white"/>
<path d="M54.9998 48.2V51.1V57.4C54.9998 59.6 54.0998 60.7 52.1998 60.7C51.4998 60.7 50.8998 60.5 50.2998 60.2C49.6998 59.9 49.1998 59.3 48.6998 58.7L46.7998 61C47.3998 61.8 48.1998 62.5 49.1998 62.9C50.1998 63.3 51.1998 63.6 52.3998 63.6C54.3998 63.6 55.8998 63.1 56.8998 62C57.8998 61 58.4998 59.4 58.4998 57.3V45.4H55.1998V48.2H54.9998Z" fill="white"/>
<path opacity="0.4" d="M20.6 59.2L5.5 37.1L0 74.8L20.6 59.2Z" fill="white"/>
<path opacity="0.4" d="M20.6 59.2L0 74.8L45.8 96.2L20.6 59.2Z" fill="white"/>
</svg>
